<?xml version="1.0" standalone="no"?>
<!DOCTYPE svg PUBLIC "-//W3C//DTD SVG 20010904//EN"
 "http://www.w3.org/TR/2001/REC-SVG-20010904/DTD/svg10.dtd">
<svg version="1.0" xmlns="http://www.w3.org/2000/svg"
 width="700.000000pt" height="700.000000pt" viewBox="0 0 700.000000 700.000000"
 preserveAspectRatio="xMidYMid meet">
<metadata>
Created by potrace 1.11, written by Peter Selinger 2001-2013
</metadata>
<g transform="translate(0.000000,700.000000) scale(0.100000,-0.100000)"
fill="#000000" stroke="none">
<path d="M353 6990 c-174 -26 -318 -173 -343 -352 -13 -84 -13 -6192 0 -6276
26 -184 168 -326 352 -352 84 -13 6192 -13 6276 0 184 26 326 168 352 352 13
84 13 6192 0 6276 -26 184 -168 326 -352 352 -76 12 -6209 11 -6285 0z m4672
-1039 c58 -26 101 -80 115 -143 17 -76 8 -3205 -9 -3333 -93 -691 -379 -1104
-911 -1313 -370 -146 -937 -173 -1361 -67 -271 69 -500 178 -704 338 -84 65
-217 200 -231 234 -19 45 -17 101 5 148 28 60 374 475 423 507 98 65 196 45
316 -63 234 -214 440 -302 702 -301 214 0 348 48 466 166 110 110 169 245 194
446 6 54 10 520 10 1292 l0 1208 -762 0 c-716 0 -765 2 -803 19 -57 26 -101
79 -114 141 -14 65 -14 513 -1 578 13 60 60 118 114 143 39 18 96 19 1276 19
1173 0 1237 -1 1275 -19z"/>
</g>
</svg>
