<svg width="24" height="24" viewBox="0 0 24 24" fill="none" xmlns="http://www.w3.org/2000/svg">
<path fill-rule="evenodd" clip-rule="evenodd" d="M0.43934 0.43934C1.02513 -0.146447 1.97487 -0.146447 2.56066 0.43934L12 9.87868L21.4393 0.43934C22.0251 -0.146447 22.9749 -0.146447 23.5607 0.43934C24.1464 1.02513 24.1464 1.97487 23.5607 2.56066L14.1213 12L23.5607 21.4393C24.1464 22.0251 24.1464 22.9749 23.5607 23.5607C22.9749 24.1464 22.0251 24.1464 21.4393 23.5607L12 14.1213L2.56066 23.5607C1.97487 24.1464 1.02513 24.1464 0.43934 23.5607C-0.146447 22.9749 -0.146447 22.0251 0.43934 21.4393L9.87868 12L0.43934 2.56066C-0.146447 1.97487 -0.146447 1.02513 0.43934 0.43934Z" fill="#EEEEEE"/>
</svg>
