<svg width="24" height="24" viewBox="0 0 24 24" fill="none" xmlns="http://www.w3.org/2000/svg">
<rect width="24" height="24" rx="2" fill="#222222"/>
<path d="M12 8.40625C11.3542 8.40625 10.75 8.57292 10.1875 8.90625C9.64583 9.21875 9.20833 9.65625 8.875 10.2188C8.5625 10.7604 8.40625 11.3542 8.40625 12C8.40625 12.6458 8.5625 13.25 8.875 13.8125C9.20833 14.3542 9.64583 14.7917 10.1875 15.125C10.75 15.4375 11.3542 15.5938 12 15.5938C12.6458 15.5938 13.2396 15.4375 13.7812 15.125C14.3438 14.7917 14.7812 14.3542 15.0938 13.8125C15.4271 13.25 15.5938 12.6458 15.5938 12C15.5938 11.3542 15.4271 10.7604 15.0938 10.2188C14.7812 9.65625 14.3438 9.21875 13.7812 8.90625C13.2396 8.57292 12.6458 8.40625 12 8.40625ZM12 14.3438C11.3542 14.3438 10.8021 14.1146 10.3438 13.6562C9.88542 13.1979 9.65625 12.6458 9.65625 12C9.65625 11.3542 9.88542 10.8021 10.3438 10.3438C10.8021 9.88542 11.3542 9.65625 12 9.65625C12.6458 9.65625 13.1979 9.88542 13.6562 10.3438C14.1146 10.8021 14.3438 11.3542 14.3438 12C14.3438 12.6458 14.1146 13.1979 13.6562 13.6562C13.1979 14.1146 12.6458 14.3438 12 14.3438ZM16.5938 8.25C16.5729 8.47917 16.4792 8.67708 16.3125 8.84375C16.1667 9.01042 15.9792 9.09375 15.75 9.09375C15.5208 9.09375 15.3229 9.01042 15.1562 8.84375C14.9896 8.67708 14.9062 8.47917 14.9062 8.25C14.9062 8.02083 14.9896 7.82292 15.1562 7.65625C15.3229 7.48958 15.5208 7.40625 15.75 7.40625C15.9792 7.40625 16.1771 7.48958 16.3438 7.65625C16.5104 7.82292 16.5938 8.02083 16.5938 8.25ZM18.9688 9.09375C18.9271 8.48958 18.8333 7.96875 18.6875 7.53125C18.5 7.01042 18.2083 6.5625 17.8125 6.1875C17.4375 5.79167 16.9896 5.5 16.4688 5.3125C16.0312 5.16667 15.5104 5.08333 14.9062 5.0625C14.3229 5.02083 13.3542 5 12 5C10.6458 5 9.66667 5.02083 9.0625 5.0625C8.47917 5.08333 7.96875 5.16667 7.53125 5.3125C7.01042 5.5 6.55208 5.79167 6.15625 6.1875C5.78125 6.5625 5.5 7.01042 5.3125 7.53125C5.16667 7.96875 5.07292 8.48958 5.03125 9.09375C5.01042 9.67708 5 10.6458 5 12C5 13.3542 5.01042 14.3333 5.03125 14.9375C5.07292 15.5208 5.16667 16.0312 5.3125 16.4688C5.5 16.9896 5.78125 17.4479 6.15625 17.8438C6.55208 18.2188 7.01042 18.4896 7.53125 18.6562C7.96875 18.8229 8.47917 18.9167 9.0625 18.9375C9.66667 18.9792 10.6458 19 12 19C13.3542 19 14.3229 18.9792 14.9062 18.9375C15.5104 18.9167 16.0312 18.8333 16.4688 18.6875C16.9896 18.5 17.4375 18.2188 17.8125 17.8438C18.2083 17.4479 18.5 16.9896 18.6875 16.4688C18.8333 16.0312 18.9167 15.5208 18.9375 14.9375C18.9792 14.3333 19 13.3542 19 12C19 10.6458 18.9896 9.67708 18.9688 9.09375ZM17.4688 16.125C17.2188 16.75 16.7708 17.1979 16.125 17.4688C15.7917 17.5938 15.2292 17.6771 14.4375 17.7188C14 17.7396 13.3542 17.75 12.5 17.75H11.5C10.6667 17.75 10.0208 17.7396 9.5625 17.7188C8.79167 17.6771 8.22917 17.5938 7.875 17.4688C7.25 17.2188 6.80208 16.7708 6.53125 16.125C6.40625 15.7708 6.32292 15.2083 6.28125 14.4375C6.26042 13.9792 6.25 13.3333 6.25 12.5V11.5C6.25 10.6667 6.26042 10.0208 6.28125 9.5625C6.32292 8.77083 6.40625 8.20833 6.53125 7.875C6.78125 7.22917 7.22917 6.78125 7.875 6.53125C8.22917 6.40625 8.79167 6.32292 9.5625 6.28125C10.0208 6.26042 10.6667 6.25 11.5 6.25H12.5C13.3333 6.25 13.9792 6.26042 14.4375 6.28125C15.2292 6.32292 15.7917 6.40625 16.125 6.53125C16.7708 6.78125 17.2188 7.22917 17.4688 7.875C17.5938 8.20833 17.6771 8.77083 17.7188 9.5625C17.7396 10 17.75 10.6458 17.75 11.5V12.5C17.75 13.3333 17.7396 13.9792 17.7188 14.4375C17.6771 15.2083 17.5938 15.7708 17.4688 16.125Z" fill="#E4405F"/>
</svg>
