<svg width="140" height="34" viewBox="0 0 140 34" fill="none" xmlns="http://www.w3.org/2000/svg">
<rect width="140" height="34" fill="#131313"/>
<rect width="140" height="34" rx="2" fill="#222222"/>
<path d="M76.9727 12.088C77.525 12.088 77.9727 12.5357 77.9727 13.088V28.656C77.9727 29.2083 77.525 29.656 76.9727 29.656H75.2287C74.6764 29.656 74.2287 29.2083 74.2287 28.656V23.632C73.3007 24.672 72.0127 25.192 70.3647 25.192C69.1487 25.192 68.0447 24.92 67.0527 24.376C66.0767 23.832 65.3087 23.056 64.7487 22.048C64.1887 21.04 63.9087 19.872 63.9087 18.544C63.9087 17.216 64.1887 16.048 64.7487 15.04C65.3087 14.032 66.0767 13.256 67.0527 12.712C68.0447 12.168 69.1487 11.896 70.3647 11.896C72.1247 11.896 73.4687 12.456 74.3967 13.576V13.088C74.3967 12.5357 74.8444 12.088 75.3967 12.088H76.9727ZM71.0127 22.12C71.9567 22.12 72.7407 21.8 73.3647 21.16C73.9887 20.504 74.3007 19.632 74.3007 18.544C74.3007 17.456 73.9887 16.592 73.3647 15.952C72.7407 15.296 71.9567 14.968 71.0127 14.968C70.0527 14.968 69.2607 15.296 68.6367 15.952C68.0127 16.592 67.7007 17.456 67.7007 18.544C67.7007 19.632 68.0127 20.504 68.6367 21.16C69.2607 21.8 70.0527 22.12 71.0127 22.12Z" fill="#EEEEEE"/>
<path d="M93.447 12.088C93.9993 12.088 94.447 12.5357 94.447 13.088V24C94.447 24.5523 93.9993 25 93.447 25H91.895C91.3427 25 90.895 24.5523 90.895 24V23.464C90.399 24.024 89.807 24.456 89.119 24.76C88.431 25.048 87.687 25.192 86.887 25.192C85.191 25.192 83.847 24.704 82.855 23.728C81.863 22.752 81.367 21.304 81.367 19.384V13.088C81.367 12.5357 81.8147 12.088 82.367 12.088H84.111C84.6633 12.088 85.111 12.5357 85.111 13.088V18.832C85.111 20.912 85.983 21.952 87.727 21.952C88.623 21.952 89.343 21.664 89.887 21.088C90.431 20.496 90.703 19.624 90.703 18.472V13.088C90.703 12.5357 91.1507 12.088 91.703 12.088H93.447Z" fill="#EEEEEE"/>
<path d="M97.9156 13.088C97.9156 12.5357 98.3633 12.088 98.9156 12.088H100.66C101.212 12.088 101.66 12.5357 101.66 13.088V24C101.66 24.5523 101.212 25 100.66 25H98.9156C98.3633 25 97.9156 24.5523 97.9156 24V13.088ZM99.7876 10.288C99.0996 10.288 98.5396 10.088 98.1076 9.688C97.6756 9.288 97.4596 8.792 97.4596 8.2C97.4596 7.608 97.6756 7.112 98.1076 6.712C98.5396 6.312 99.0996 6.112 99.7876 6.112C100.476 6.112 101.036 6.304 101.468 6.688C101.9 7.072 102.116 7.552 102.116 8.128C102.116 8.752 101.9 9.272 101.468 9.688C101.036 10.088 100.476 10.288 99.7876 10.288Z" fill="#EEEEEE"/>
<path d="M111.374 25.192C109.998 25.192 108.758 24.912 107.654 24.352C106.566 23.776 105.71 22.984 105.086 21.976C104.478 20.968 104.174 19.824 104.174 18.544C104.174 17.264 104.478 16.12 105.086 15.112C105.71 14.104 106.566 13.32 107.654 12.76C108.758 12.184 109.998 11.896 111.374 11.896C112.734 11.896 113.918 12.184 114.926 12.76C115.671 13.1671 116.267 13.7052 116.716 14.3743C117.006 14.8077 116.804 15.3744 116.344 15.6213L115.115 16.2817C114.636 16.5387 114.053 16.3514 113.683 15.9542C113.07 15.2967 112.292 14.968 111.35 14.968C110.374 14.968 109.566 15.288 108.926 15.928C108.286 16.568 107.966 17.44 107.966 18.544C107.966 19.648 108.286 20.52 108.926 21.16C109.566 21.8 110.374 22.12 111.35 22.12C112.296 22.12 113.072 21.7966 113.677 21.1497C114.053 20.7483 114.644 20.5565 115.126 20.8197L116.343 21.4833C116.803 21.734 117 22.3049 116.703 22.7357C116.256 23.3826 115.663 23.9133 114.926 24.328C113.918 24.904 112.734 25.192 111.374 25.192Z" fill="#EEEEEE"/>
<path d="M124.764 19.936L122.964 21.712V24C122.964 24.5523 122.517 25 121.964 25H120.22C119.668 25 119.22 24.5523 119.22 24V8.192C119.22 7.63972 119.668 7.192 120.22 7.192H121.964C122.517 7.192 122.964 7.63972 122.964 8.192V17.272L128.147 12.362C128.333 12.1861 128.579 12.088 128.835 12.088H130.516C131.403 12.088 131.851 13.1563 131.229 13.7888L127.524 17.56L132.106 23.3815C132.623 24.0375 132.155 25 131.321 25H129.323C129.02 25 128.734 24.863 128.544 24.6274L124.764 19.936Z" fill="#EEEEEE"/>
<path d="M11.0882 25.288C9.95221 25.288 8.90421 25.08 7.94421 24.664C7.25701 24.3495 6.65883 23.9418 6.14969 23.4407C5.81502 23.1114 5.83034 22.583 6.13093 22.2223L6.96146 21.2257C7.37632 20.7279 8.14166 20.7628 8.62983 21.189C9.32247 21.7937 10.0779 22.096 10.8962 22.096C12.4802 22.096 13.2722 21.168 13.2722 19.312V11.32H8.36821C7.81593 11.32 7.36821 10.8723 7.36821 10.32V9.2C7.36821 8.64771 7.81593 8.2 8.36821 8.2H16.1362C16.6885 8.2 17.1362 8.64772 17.1362 9.2V19.096C17.1362 21.16 16.6242 22.712 15.6002 23.752C14.5762 24.776 13.0722 25.288 11.0882 25.288Z" fill="#EC2A2A"/>
<path d="M20.7126 13.088C20.7126 12.5357 21.1603 12.088 21.7126 12.088H23.4566C24.0089 12.088 24.4566 12.5357 24.4566 13.088V24C24.4566 24.5523 24.0089 25 23.4566 25H21.7126C21.1603 25 20.7126 24.5523 20.7126 24V13.088ZM22.5846 10.288C21.8966 10.288 21.3366 10.088 20.9046 9.688C20.4726 9.288 20.2566 8.792 20.2566 8.2C20.2566 7.608 20.4726 7.112 20.9046 6.712C21.3366 6.312 21.8966 6.112 22.5846 6.112C23.2726 6.112 23.8326 6.304 24.2646 6.688C24.6966 7.072 24.9126 7.552 24.9126 8.128C24.9126 8.752 24.6966 9.272 24.2646 9.688C23.8326 10.088 23.2726 10.288 22.5846 10.288Z" fill="#EC2A2A"/>
<path d="M32.0353 12.376H34.0002C34.5525 12.376 35.0002 12.8237 35.0002 13.376V14.256C35.0002 14.8083 34.5525 15.256 34.0002 15.256H32.1313V24C32.1313 24.5523 31.6836 25 31.1313 25H29.3873C28.8351 25 28.3873 24.5523 28.3873 24V15.256H27.3953C26.8431 15.256 26.3953 14.8083 26.3953 14.256V13.376C26.3953 12.8237 26.8431 12.376 27.3953 12.376H28.3873V11.8C28.3873 10.328 28.8193 9.16 29.6833 8.296C30.5633 7.432 31.7953 7 33.3793 7C33.9393 7 34.4673 7.064 34.9633 7.192C35.1668 7.23652 35.3564 7.28988 35.5321 7.35209C35.9665 7.50587 36.1248 8.00066 35.9676 8.43378L35.6974 9.17867C35.4726 9.79807 34.6922 10.0297 34.0363 9.96608C33.9396 9.95669 33.8406 9.952 33.7393 9.952C32.6033 9.952 32.0353 10.576 32.0353 11.824V12.376Z" fill="#EC2A2A"/>
<path d="M41.3166 12.376H43.0002C43.5525 12.376 44.0002 12.8237 44.0002 13.376V14.256C44.0002 14.8083 43.5525 15.256 43.0002 15.256H41.4126V24C41.4126 24.5523 40.9649 25 40.4126 25H38.6686C38.1163 25 37.6686 24.5523 37.6686 24V15.256H36.6766C36.1243 15.256 35.6766 14.8083 35.6766 14.256V13.376C35.6766 12.8237 36.1243 12.376 36.6766 12.376H37.6686V11.8C37.6686 10.328 38.1006 9.16 38.9646 8.296C39.8446 7.432 41.0766 7 42.6606 7C43.2206 7 43.7486 7.064 44.2446 7.192C44.4481 7.23652 44.6377 7.28988 44.8134 7.35209C45.2477 7.50587 45.406 8.00066 45.2489 8.43378L44.9786 9.17867C44.7539 9.79807 43.9734 10.0297 43.3176 9.96608C43.2208 9.95669 43.1218 9.952 43.0206 9.952C41.8846 9.952 41.3166 10.576 41.3166 11.824V12.376Z" fill="#EC2A2A"/>
<path d="M58.0319 12.088C58.7487 12.088 59.2327 12.82 58.952 13.4796L53.7122 25.792C53.1202 27.28 52.3842 28.328 51.5042 28.936C50.6402 29.544 49.5922 29.848 48.3602 29.848C47.6882 29.848 47.0242 29.744 46.3682 29.536C46.0069 29.4214 45.682 29.2826 45.3935 29.1195C44.9956 28.8946 44.9063 28.3875 45.1151 27.9809L45.599 27.0387C45.867 26.5166 46.5657 26.3942 47.1122 26.608C47.4962 26.752 47.8722 26.824 48.2402 26.824C48.7522 26.824 49.1682 26.696 49.4882 26.44C49.8082 26.2 50.0962 25.792 50.3522 25.216L50.4002 25.096L45.4079 13.4829C45.1242 12.8229 45.6082 12.088 46.3266 12.088H48.0037C48.4083 12.088 48.7731 12.3318 48.9278 12.7057L52.2962 20.848L55.6879 12.7036C55.8431 12.3308 56.2072 12.088 56.611 12.088H58.0319Z" fill="#EC2A2A"/>
</svg>
