<svg width="24" height="24" viewBox="0 0 24 24" fill="none" xmlns="http://www.w3.org/2000/svg">
<rect width="24" height="24" rx="2" fill="#222222"/>
<path d="M18.9688 7.09375L16.8438 17.0312C16.7604 17.3854 16.6146 17.6146 16.4062 17.7188C16.2188 17.8021 15.9792 17.7604 15.6875 17.5938L12.4688 15.2188L10.9062 16.7188C10.8021 16.8229 10.7188 16.8958 10.6562 16.9375C10.5521 17 10.4167 17.0312 10.25 17.0312L10.5 13.75L16.4688 8.34375C16.5521 8.28125 16.5729 8.22917 16.5312 8.1875C16.5104 8.125 16.4479 8.10417 16.3438 8.125C16.2604 8.125 16.1667 8.15625 16.0625 8.21875L8.6875 12.875L5.5 11.875C5.14583 11.7708 4.97917 11.6146 5 11.4062C5.02083 11.1979 5.23958 11.0104 5.65625 10.8438L18.0625 6.0625C18.375 5.95833 18.625 6 18.8125 6.1875C19 6.35417 19.0521 6.65625 18.9688 7.09375Z" fill="#0088CC"/>
</svg>
