<svg width="24" height="24" viewBox="0 0 24 24" fill="none" xmlns="http://www.w3.org/2000/svg">
<rect width="24" height="24" rx="2" fill="#222222"/>
<path d="M18.3438 8.75C18.3646 8.83333 18.375 8.96875 18.375 9.15625C18.375 10.6562 18.0104 12.1042 17.2812 13.5C16.5312 14.9792 15.4792 16.1562 14.125 17.0312C12.6458 18.0104 10.9479 18.5 9.03125 18.5C7.19792 18.5 5.52083 18.0104 4 17.0312C4.22917 17.0521 4.48958 17.0625 4.78125 17.0625C6.30208 17.0625 7.66667 16.5938 8.875 15.6562C8.14583 15.6562 7.5 15.4479 6.9375 15.0312C6.39583 14.5938 6.02083 14.0521 5.8125 13.4062C6.02083 13.4271 6.21875 13.4375 6.40625 13.4375C6.69792 13.4375 6.98958 13.4062 7.28125 13.3438C6.53125 13.1771 5.90625 12.7917 5.40625 12.1875C4.90625 11.5833 4.65625 10.8958 4.65625 10.125V10.0625C5.11458 10.3333 5.60417 10.4792 6.125 10.5C5.6875 10.1875 5.33333 9.79167 5.0625 9.3125C4.79167 8.83333 4.65625 8.3125 4.65625 7.75C4.65625 7.16667 4.8125 6.61458 5.125 6.09375C5.9375 7.11458 6.92708 7.92708 8.09375 8.53125C9.28125 9.13542 10.5417 9.46875 11.875 9.53125C11.8333 9.28125 11.8125 9.03125 11.8125 8.78125C11.8125 8.19792 11.9583 7.65625 12.25 7.15625C12.5417 6.63542 12.9375 6.22917 13.4375 5.9375C13.9375 5.64583 14.4792 5.5 15.0625 5.5C15.5417 5.5 15.9792 5.59375 16.375 5.78125C16.7917 5.96875 17.1562 6.21875 17.4688 6.53125C18.2188 6.38542 18.9167 6.125 19.5625 5.75C19.3125 6.52083 18.8333 7.125 18.125 7.5625C18.75 7.47917 19.375 7.30208 20 7.03125C19.5417 7.69792 18.9896 8.27083 18.3438 8.75Z" fill="#55ACEE"/>
</svg>
