<svg width="20" height="22" viewBox="0 0 20 22" fill="none" xmlns="http://www.w3.org/2000/svg">
<path d="M17.3333 2.58825C16.7853 2.58825 16.2746 2.75004 15.8506 3.02568C15.4853 2.01888 14.4946 1.29416 13.3333 1.29416C12.7853 1.29416 12.2746 1.45594 11.8506 1.73159C11.4853 0.724725 10.4947 0 9.33335 0C8.17204 0 7.18135 0.724725 6.81604 1.73153C6.39204 1.45588 5.88136 1.2941 5.33336 1.2941C3.86268 1.2941 2.66668 2.45492 2.66668 3.88235V6.84974L1.36668 8.11023C0.485374 8.96695 0 10.1031 0 11.3132V13.2738C0 14.4838 0.485311 15.6213 1.36668 16.478L4.03467 19.0662C5.98267 20.9582 8.57597 22 11.3333 22C16.112 22 20 18.2264 20 13.5882V5.17645C19.9999 3.74908 18.8039 2.58825 17.3333 2.58825ZM18.6666 13.5882C18.6666 17.5133 15.376 20.7058 11.332 20.7058C8.93066 20.7058 6.67329 19.7986 4.9773 18.1513L2.30931 15.563C1.67999 14.9509 1.33331 14.1382 1.33331 13.275V11.3144C1.33331 10.45 1.67999 9.63727 2.30931 9.02646L2.66668 8.67966V9.70587C2.66668 10.0631 2.96537 10.353 3.33336 10.353C3.70136 10.353 3.99999 10.0631 3.99999 9.70587V7.11896C3.99999 7.11768 3.99999 7.11768 3.99999 7.11635V3.88235C3.99999 3.16927 4.5973 2.58825 5.3333 2.58825C6.06929 2.58825 6.66667 3.16927 6.66667 3.88235V5.82352C6.66667 6.1807 6.96535 6.4706 7.33335 6.4706C7.70135 6.4706 8.00004 6.1807 8.00004 5.82352V2.58825C8.00004 1.87517 8.59735 1.29416 9.33335 1.29416C10.0693 1.29416 10.6667 1.87517 10.6667 2.58825V5.82352C10.6667 6.1807 10.9653 6.4706 11.3333 6.4706C11.7013 6.4706 12 6.1807 12 5.82352V3.88235C12 3.16927 12.5973 2.58825 13.3333 2.58825C14.0693 2.58825 14.6666 3.16927 14.6666 3.88235V5.82352C14.6666 6.1807 14.9653 6.4706 15.3333 6.4706C15.7013 6.4706 16 6.1807 16 5.82352V5.17645C16 4.46337 16.5973 3.88235 17.3333 3.88235C18.0693 3.88235 18.6666 4.46343 18.6666 5.17645V13.5882Z" fill="#666666"/>
</svg>
