<svg width="23" height="28" viewBox="0 0 23 28" fill="none" xmlns="http://www.w3.org/2000/svg">
<path d="M19.8334 8.16665C19.3539 8.16665 18.907 8.3125 18.536 8.561C18.2164 7.65335 17.3495 7 16.3334 7C15.8539 7 15.407 7.14585 15.036 7.39435C14.7164 6.4867 13.8495 5.83335 12.8334 5.83335C12.4087 5.83335 12.0097 5.9477 11.6667 6.1472V2.33335C11.6667 1.0465 10.6202 0 9.33335 0C8.0465 0 7 1.0465 7 2.33335V15.9729L3.79285 14.3687C3.30985 14.1271 2.7685 14 2.22835 14C0.998703 14 0 14.9999 0 16.2354C0 16.8315 0.232148 17.3904 0.653351 17.8115L8.197 25.3551C9.9015 27.0609 12.1707 28 14.5834 28C18.7647 28 22.1667 24.598 22.1667 20.4166V10.5C22.1667 9.21315 21.1202 8.16665 19.8334 8.16665ZM21 20.4166C21 23.9551 18.1206 26.8333 14.5821 26.8333C12.481 26.8333 10.507 26.0154 9.023 24.5291L1.4782 16.9855C1.27755 16.786 1.1667 16.5189 1.1667 16.2284C1.1667 15.6427 1.6427 15.1667 2.22835 15.1667C2.58885 15.1667 2.9482 15.2519 3.27135 15.4129L7.3232 17.4382C7.50406 17.5281 7.71985 17.5187 7.8902 17.4126C8.0617 17.3064 8.1667 17.1186 8.1667 16.9167V2.33335C8.1667 1.6905 8.68935 1.1667 9.33335 1.1667C9.97735 1.1667 10.5 1.69055 10.5 2.33335V13.4167C10.5 13.7387 10.7614 14.0001 11.0834 14.0001C11.4054 14.0001 11.6667 13.7387 11.6667 13.4167V8.1667C11.6667 7.52385 12.1894 7.00006 12.8334 7.00006C13.4774 7.00006 14 7.52391 14 8.1667V13.4167C14 13.7387 14.2614 14.0001 14.5834 14.0001C14.9054 14.0001 15.1667 13.7387 15.1667 13.4167V9.33335C15.1667 8.6905 15.6894 8.1667 16.3334 8.1667C16.9774 8.1667 17.5 8.69056 17.5 9.33335V13.4167C17.5 13.7387 17.7614 14.0001 18.0834 14.0001C18.4054 14.0001 18.6667 13.7387 18.6667 13.4167V10.5C18.6667 9.85715 19.1894 9.33335 19.8334 9.33335C20.4774 9.33335 21 9.8572 21 10.5V20.4166Z" fill="#666666"/>
</svg>
