<svg width="24" height="24" viewBox="0 0 24 24" fill="none" xmlns="http://www.w3.org/2000/svg">
<rect width="24" height="24" rx="2" fill="#222222"/>
<path d="M20.0312 7.6875C20.1562 7.22917 19.9688 7 19.4688 7H17.625C17.25 7 16.9896 7.17708 16.8438 7.53125L16.5312 8.15625C16.2812 8.69792 16.0208 9.19792 15.75 9.65625C15.3542 10.3021 14.9583 10.8438 14.5625 11.2812C14.3542 11.5104 14.1875 11.6667 14.0625 11.75C13.9375 11.8125 13.8229 11.8438 13.7188 11.8438C13.6354 11.8438 13.5625 11.8021 13.5 11.7188C13.4375 11.6354 13.4062 11.5 13.4062 11.3125V7.6875C13.4062 7.4375 13.3646 7.26042 13.2812 7.15625C13.2188 7.05208 13.0938 7 12.9062 7H10C9.875 7 9.76042 7.04167 9.65625 7.125C9.57292 7.20833 9.53125 7.3125 9.53125 7.4375C9.53125 7.54167 9.60417 7.6875 9.75 7.875C9.89583 8.04167 10 8.19792 10.0625 8.34375C10.1875 8.59375 10.2604 8.88542 10.2812 9.21875V11.9375C10.2812 12.2083 10.25 12.3958 10.1875 12.5C10.1458 12.5833 10.0625 12.625 9.9375 12.625C9.72917 12.625 9.4375 12.3958 9.0625 11.9375C8.6875 11.4792 8.3125 10.8854 7.9375 10.1562C7.52083 9.36458 7.16667 8.55208 6.875 7.71875C6.79167 7.44792 6.6875 7.26042 6.5625 7.15625C6.45833 7.05208 6.29167 7 6.0625 7H4.21875C3.80208 7 3.59375 7.17708 3.59375 7.53125C3.59375 7.73958 3.66667 8.10417 3.8125 8.625C4.04167 9.27083 4.34375 9.96875 4.71875 10.7188C5.19792 11.6979 5.79167 12.6667 6.5 13.625C7.25 14.7083 8.125 15.5417 9.125 16.125C10.125 16.7083 11.1146 17 12.0938 17C12.6562 17 13.0312 16.9375 13.2188 16.8125C13.3646 16.7083 13.4271 16.5312 13.4062 16.2812V15.4688C13.4062 14.9688 13.4167 14.6458 13.4375 14.5C13.4375 14.2917 13.4688 14.1562 13.5312 14.0938C13.6146 14.0312 13.7396 14 13.9062 14C14.3021 14 14.9167 14.3958 15.75 15.1875C16 15.4375 16.2812 15.75 16.5938 16.125C16.9271 16.4792 17.1562 16.6979 17.2812 16.7812C17.4688 16.9271 17.6771 17 17.9062 17H19.75C20 17 20.1771 16.9375 20.2812 16.8125C20.4062 16.6667 20.4375 16.4688 20.375 16.2188C20.1875 15.6354 19.3438 14.5729 17.8438 13.0312L17.5625 12.7188C17.4375 12.5729 17.375 12.4479 17.375 12.3438C17.375 12.2396 17.4375 12.0938 17.5625 11.9062C17.5833 11.8854 17.7812 11.6042 18.1562 11.0625C18.5938 10.375 18.9688 9.77083 19.2812 9.25C19.7188 8.52083 19.9688 8 20.0312 7.6875Z" fill="#4D7198"/>
</svg>
