<svg width="24" height="24" viewBox="0 0 24 24" fill="none" xmlns="http://www.w3.org/2000/svg">
<rect width="24" height="24" rx="2" fill="#222222"/>
<path d="M20.1875 7.875C20.0833 7.5 19.8958 7.17708 19.625 6.90625C19.3542 6.63542 19.0312 6.44792 18.6562 6.34375C18.1146 6.19792 16.8438 6.09375 14.8438 6.03125L12 6L9.15625 6.03125C7.15625 6.09375 5.88542 6.19792 5.34375 6.34375C4.96875 6.44792 4.64583 6.63542 4.375 6.90625C4.10417 7.17708 3.91667 7.5 3.8125 7.875C3.66667 8.4375 3.5625 9.29167 3.5 10.4375C3.47917 11.0208 3.46875 11.5417 3.46875 12L3.5 13.5625C3.5625 14.7292 3.66667 15.5938 3.8125 16.1562C3.91667 16.5104 4.10417 16.8229 4.375 17.0938C4.64583 17.3646 4.96875 17.5521 5.34375 17.6562C5.88542 17.8021 7.15625 17.9062 9.15625 17.9688L12 18L14.8438 17.9688C16.8438 17.9062 18.1146 17.8021 18.6562 17.6562C19.0312 17.5521 19.3542 17.3646 19.625 17.0938C19.8958 16.8229 20.0833 16.5104 20.1875 16.1562C20.3333 15.5938 20.4375 14.7292 20.5 13.5625L20.5312 12L20.5 10.4375C20.4375 9.29167 20.3333 8.4375 20.1875 7.875ZM10.25 14.5625V9.46875L14.7188 12L10.25 14.5625Z" fill="#CD201F"/>
</svg>
